<svg width="14" height="14" viewBox="0 0 14 14" fill="none" xmlns="http://www.w3.org/2000/svg">
<g clip-path="url(#clip0_4_31)">
<path fill-rule="evenodd" clip-rule="evenodd" d="M13.2986 8.40086C13.1131 8.40086 12.9352 8.32716 12.804 8.19597C12.6728 8.06478 12.5991 7.88685 12.5991 7.70132V1.39994H6.29954C6.11389 1.39994 5.93584 1.32619 5.80456 1.19491C5.67329 1.06364 5.59954 0.885591 5.59954 0.699939C5.59954 0.514288 5.67329 0.336241 5.80456 0.204965C5.93584 0.0736899 6.11389 -6.10352e-05 6.29954 -6.10352e-05H13.2986C13.4842 -6.10352e-05 13.6621 0.0736412 13.7933 0.204831C13.9245 0.33602 13.9982 0.513951 13.9982 0.699481V7.69857C13.9985 7.79066 13.9807 7.88192 13.9457 7.96711C13.9107 8.0523 13.8592 8.12974 13.7942 8.19499C13.7293 8.26024 13.652 8.31202 13.567 8.34735C13.4819 8.38267 13.3907 8.40086 13.2986 8.40086Z" fill="white"/>
<path fill-rule="evenodd" clip-rule="evenodd" d="M0.205301 13.7956C0.140073 13.7306 0.0883181 13.6534 0.053004 13.5684C0.01769 13.4833 -0.000488281 13.3921 -0.000488281 13.3001C-0.000488281 13.208 0.01769 13.1168 0.053004 13.0318C0.0883181 12.9467 0.140073 12.8695 0.205301 12.8045L12.8035 0.209108C12.9349 0.0776805 13.1131 0.00384521 13.299 0.00384521C13.4849 0.00384522 13.6631 0.0776805 13.7946 0.209108C13.926 0.340535 13.9998 0.518788 13.9998 0.704654C13.9998 0.89052 13.926 1.06877 13.7946 1.2002L1.19639 13.7956C1.1314 13.8608 1.05417 13.9126 0.969136 13.9479C0.884099 13.9832 0.792926 14.0014 0.700847 14.0014C0.608768 14.0014 0.517596 13.9832 0.432558 13.9479C0.347521 13.9126 0.270292 13.8608 0.205301 13.7956Z" fill="white"/>
</g>
<defs>
<clipPath id="clip0_4_31">
<rect width="14" height="14" fill="white"/>
</clipPath>
</defs>
</svg>
