<svg width="1440" height="1022" viewBox="0 0 1440 1022" fill="none" xmlns="http://www.w3.org/2000/svg">
<path d="M1456.93 1021.96H1456.27C1429.19 987.656 1402.62 952.574 1376.17 917.608C1288.84 802.171 1202.48 687.978 1101.3 608.479C868.097 425.171 556.119 426.455 -27.731 1021.96H-28.4701C555.886 425.832 868.136 424.588 1101.65 608.051C1202.87 687.589 1289.27 801.782 1376.6 917.297C1403.13 952.38 1429.77 987.579 1456.93 1021.96ZM1479.92 1021.96H1479.22C1444.67 981.861 1410.83 940.245 1376.99 898.667C1283.12 783.268 1189.57 668.22 1082.36 587.437C830.87 398.023 503.993 397.168 -78.8845 1022H-79.6236C503.721 396.545 830.909 397.401 1082.67 587.048C1189.96 667.87 1283.51 782.918 1377.41 898.356C1411.34 940.011 1445.3 981.784 1479.92 1021.96ZM1507.03 1021.96H1506.29C1463.73 976.572 1421.99 928.576 1380.14 880.465C1279.19 764.483 1177.74 647.839 1063.41 565.54C792.903 370.836 450.272 368.58 -127.665 1021.96H-128.365C450 367.919 792.942 370.214 1063.73 565.151C1178.09 647.489 1279.58 764.133 1380.53 880.153C1422.5 928.343 1464.36 976.455 1507.03 1021.96ZM1538.23 1021.96H1537.49C1486.57 971.904 1436.39 917.725 1385.86 863.196C1277.09 745.852 1166.69 626.72 1044 542.631C753.731 343.727 394.645 341.043 -173.995 1021.96H-174.695C394.373 340.421 753.77 343.105 1044.28 542.242C1167 626.37 1277.44 745.502 1386.24 862.885C1436.89 917.531 1487.19 971.788 1538.23 1021.96ZM1559 1008.62V1009.32C1504.23 958.642 1449.65 903.179 1394.41 846.977C1276.82 727.378 1156.11 604.628 1023.42 518.4C713.003 316.618 336.956 314.984 -217.835 1021.96H-218.497C336.684 314.362 713.003 316.035 1023.74 517.972C1156.46 604.239 1277.21 727.028 1394.8 846.627C1449.92 902.712 1504.35 958.058 1559 1008.62ZM1559 975.016V975.716C1508.62 930.599 1457.86 881.709 1406.28 832.042C1278.65 709.175 1145.8 581.37 1001.1 492.536C670.252 289.509 277.05 290.715 -258.992 1021.92H-259.653C276.739 290.131 670.213 288.964 1001.37 492.147C1146.15 580.981 1279 708.825 1406.63 831.692C1458.13 881.242 1508.78 929.977 1559 975.016ZM1559 941.334V942.034C1514.11 902.984 1468.48 861.251 1421.92 818.701C1282.73 691.401 1135.5 556.75 976.161 464.96C624.933 262.594 214.849 268.778 -297.425 1021.96H-298.047C214.538 268.156 624.933 261.972 976.473 464.532C1135.85 556.361 1283.08 691.012 1422.31 818.351C1468.71 860.784 1514.23 902.401 1559 941.334ZM1559 907.574V908.274C1520.84 876.031 1481.86 841.998 1442.03 807.266C1289.58 674.249 1124.95 530.574 947.881 435.4C576.503 235.796 150.392 249.487 -332.94 1021.96H-333.563C150.042 248.865 576.503 235.174 948.153 434.934C1125.27 530.146 1289.93 673.821 1442.38 806.877C1482.09 841.493 1520.96 875.408 1559 907.574ZM1559 873.736V874.436C1529.12 849.894 1498.55 824.341 1467.35 798.243C1299.81 658.108 1113.98 502.726 915.283 403.818C524.532 209.27 83.912 233.346 -365.344 1021.96H-365.966C83.5619 232.724 524.493 208.687 915.516 403.352C1114.26 502.298 1300.12 657.719 1467.7 797.854C1498.78 823.835 1529.24 849.272 1559 873.736ZM1559 839.82V840.482C1539.36 824.768 1519.4 808.666 1499.06 792.331C1314.63 643.794 1102.66 473.089 877.511 370.214C471.278 184.651 22.0221 220.083 -386 1005.35V1004.19C22.0999 219.461 471.395 184.145 877.744 369.786C1102.94 472.661 1314.94 643.406 1499.41 791.942C1519.63 808.2 1539.47 824.224 1559 839.82ZM1559 805.866V806.527C1552.27 801.276 1545.5 796.026 1538.69 790.697C1335.99 632.554 1091.34 441.74 833.748 334.898C421.019 163.765 -25.1247 208.454 -386 948.646V947.44C-25.0469 207.831 421.175 163.259 833.943 334.431C1091.62 441.273 1336.26 632.126 1539.01 790.308C1545.74 795.52 1552.39 800.693 1559 805.866ZM1559 771.834V772.495C1342.13 607.584 1067.97 403.741 783.178 298.066C367.843 143.967 -70.132 198.769 -386 887.816V886.532C-69.9764 198.147 367.999 143.462 783.373 297.599C1068.08 403.235 1342.13 606.962 1559 771.834ZM1559 737.762V738.424C1330.27 568.651 1030.7 359.829 725.217 260.222C312.061 125.493 -111.872 190.601 -386 822.124V820.801C-111.716 189.979 312.216 124.987 725.412 259.716C1030.82 359.324 1330.27 567.99 1559 737.762ZM1559 703.614V704.275C1294.21 512.294 925.63 273.446 568.023 199.664C194.427 122.576 -167.188 225.762 -386 750.636V749.275C-166.993 225.1 194.582 122.07 568.1 199.158C925.708 272.94 1294.21 511.672 1559 703.614ZM1559 669.426V670.087C1289.15 478.806 902.796 244.158 534.724 173.138C162.801 101.379 -190.45 196.786 -386 673.043V671.643C-190.255 196.124 162.957 100.873 534.841 172.632C902.874 243.614 1289.11 478.184 1559 669.426ZM1559 635.199V635.821C1284.79 445.746 881.945 215.921 504.188 147.079C356.912 120.242 213.449 117.87 82.9395 151.863C-47.57 185.856 -165.126 256.216 -260.625 374.842C-308.278 434.039 -350.445 505.254 -386 589.965V588.604C-350.523 504.359 -308.511 433.495 -261.053 374.531C-165.476 255.827 -47.8034 185.428 82.7839 151.396C213.371 117.364 356.912 119.736 504.265 146.612C881.984 215.416 1284.76 445.124 1559 635.199ZM1559 600.933V601.556C1266.59 403.118 818.772 165.009 415.729 112.191C277.478 94.0664 144.479 97.7614 24.8229 132.338C-94.7946 166.915 -201.108 232.374 -285.988 337.776C-323.799 384.799 -357.37 439.718 -386 503.426V502.104C-357.486 438.862 -324.032 384.216 -286.377 337.465C-201.458 231.985 -95.0669 166.448 24.6673 131.871C144.401 97.2558 277.44 93.5608 415.768 111.685C818.811 164.504 1266.51 402.496 1559 600.933ZM1559 566.629V567.251C1346.49 425.988 1047.47 266.523 743.306 168.704C516.052 95.6222 285.92 56.9227 86.9851 85.9765C-111.949 115.03 -279.725 211.799 -382.421 409.575C-383.627 411.908 -384.833 414.242 -386 416.615V415.448C-384.95 413.425 -383.938 411.403 -382.888 409.38C-280.114 211.449 -112.183 114.602 86.9073 85.5487C285.959 56.4948 516.13 95.1944 743.5 168.276C1047.54 266.017 1346.49 425.405 1559 566.629ZM1559 532.285V532.908C1331.86 384.955 1000.98 219.15 670.952 125.687C446.227 62.0956 221.89 31.9916 31.008 63.9625C-145.053 93.4441 -292.679 175.666 -386 332.992V331.942C-292.562 174.966 -145.015 92.8607 30.8913 63.418C221.89 31.4471 446.265 61.5122 671.069 125.182C1001.06 218.605 1331.82 384.371 1559 532.285ZM1559 497.903V498.525C1316.77 343.805 951.343 171.971 595.136 84.304C374.106 29.8913 156.616 7.8773 -25.6693 42.4152C-175.318 70.8078 -301.276 137.317 -386 255.36V254.465C-301.198 136.694 -175.318 70.2633 -25.7471 41.9096C156.616 7.33279 374.184 29.3468 595.253 83.7984C951.382 171.466 1316.73 343.221 1559 497.903ZM1559 463.521V464.143C1301.52 302.772 899.256 125.532 517.219 44.8655C300.818 -0.796062 90.9529 -15.4591 -82.4244 21.2957C-205.621 47.3936 -310.417 99.5116 -386 184.962V184.145C-310.378 98.8893 -205.621 46.8491 -82.5022 20.7512C90.9529 -16.0036 300.896 -1.34058 517.336 44.3599C899.295 124.987 1301.44 302.188 1559 463.521ZM24.9007 1021.96C606.65 455.625 904.819 451.853 1120.95 628.548C1216.87 706.958 1296.62 820.879 1377.8 936.9C1397.68 965.292 1417.64 993.802 1437.94 1021.96H1437.28C1417.05 993.918 1397.18 965.487 1377.34 937.211C1296.15 821.229 1216.41 707.308 1120.56 628.937C904.663 452.436 606.806 456.248 25.6398 1021.96H24.9007Z" fill="#1A0061" fill-opacity="0.1"/>
</svg>
