<svg width="1440" height="1022" viewBox="0 0 1440 1022" fill="none" xmlns="http://www.w3.org/2000/svg">
<mask id="mask0_247_3" style="mask-type:alpha" maskUnits="userSpaceOnUse" x="0" y="0" width="1440" height="1022">
<rect width="1440" height="1022" fill="#D9D9D9"/>
</mask>
<g mask="url(#mask0_247_3)">
<path d="M1456.93 1019.96H1456.27C1429.19 985.657 1402.62 950.574 1376.17 915.608C1288.84 800.171 1202.48 685.978 1101.3 606.479C868.097 423.171 556.119 424.455 -27.731 1019.96H-28.4701C555.886 423.832 868.136 422.588 1101.65 606.051C1202.87 685.589 1289.27 799.782 1376.6 915.297C1403.13 950.38 1429.77 985.579 1456.93 1019.96ZM1479.92 1019.96H1479.22C1444.67 979.861 1410.83 938.245 1376.99 896.667C1283.12 781.268 1189.57 666.22 1082.36 585.437C830.87 396.023 503.993 395.168 -78.8845 1020H-79.6236C503.721 394.545 830.909 395.401 1082.67 585.048C1189.96 665.87 1283.51 780.918 1377.41 896.356C1411.34 938.011 1445.3 979.784 1479.92 1019.96ZM1507.03 1019.96H1506.29C1463.73 974.572 1421.99 926.576 1380.14 878.465C1279.19 762.483 1177.74 645.839 1063.41 563.54C792.903 368.836 450.272 366.58 -127.665 1019.96H-128.365C450 365.919 792.942 368.214 1063.73 563.151C1178.09 645.489 1279.58 762.133 1380.53 878.153C1422.5 926.343 1464.36 974.455 1507.03 1019.96ZM1538.23 1019.96H1537.49C1486.57 969.904 1436.39 915.725 1385.86 861.196C1277.09 743.852 1166.69 624.72 1044 540.631C753.731 341.727 394.645 339.043 -173.995 1019.96H-174.695C394.373 338.421 753.77 341.105 1044.28 540.242C1167 624.37 1277.44 743.502 1386.25 860.885C1436.89 915.531 1487.19 969.788 1538.23 1019.96ZM1559 1006.62V1007.32C1504.23 956.642 1449.65 901.179 1394.41 844.977C1276.82 725.378 1156.11 602.628 1023.42 516.4C713.003 314.618 336.956 312.984 -217.835 1019.96H-218.497C336.684 312.362 713.003 314.035 1023.74 515.972C1156.46 602.239 1277.21 725.028 1394.8 844.627C1449.92 900.712 1504.35 956.058 1559 1006.62ZM1559 973.016V973.716C1508.62 928.599 1457.86 879.709 1406.28 830.042C1278.65 707.175 1145.8 579.37 1001.1 490.536C670.252 287.509 277.05 288.715 -258.992 1019.92H-259.653C276.739 288.131 670.213 286.964 1001.37 490.147C1146.15 578.981 1279 706.825 1406.63 829.692C1458.13 879.242 1508.78 927.977 1559 973.016ZM1559 939.334V940.034C1514.11 900.984 1468.48 859.251 1421.92 816.701C1282.73 689.401 1135.5 554.75 976.161 462.96C624.933 260.594 214.849 266.778 -297.425 1019.96H-298.047C214.538 266.156 624.933 259.972 976.472 462.532C1135.85 554.361 1283.08 689.012 1422.31 816.351C1468.71 858.784 1514.23 900.401 1559 939.334ZM1559 905.574V906.274C1520.84 874.031 1481.86 839.998 1442.03 805.266C1289.58 672.249 1124.95 528.574 947.881 433.4C576.503 233.796 150.392 247.487 -332.94 1019.96H-333.563C150.042 246.865 576.503 233.174 948.153 432.934C1125.26 528.146 1289.93 671.821 1442.38 804.877C1482.09 839.493 1520.96 873.408 1559 905.574ZM1559 871.736V872.436C1529.12 847.894 1498.55 822.341 1467.35 796.243C1299.81 656.108 1113.98 500.726 915.283 401.818C524.532 207.27 83.912 231.346 -365.344 1019.96H-365.967C83.5619 230.724 524.493 206.687 915.516 401.352C1114.26 500.298 1300.12 655.719 1467.7 795.854C1498.78 821.835 1529.24 847.272 1559 871.736ZM1559 837.82V838.482C1539.36 822.768 1519.4 806.666 1499.06 790.331C1314.63 641.794 1102.66 471.089 877.511 368.214C471.278 182.651 22.0221 218.083 -386 1003.35V1002.19C22.0999 217.461 471.395 182.145 877.744 367.786C1102.94 470.661 1314.94 641.406 1499.41 789.942C1519.63 806.2 1539.47 822.224 1559 837.82ZM1559 803.866V804.527C1552.27 799.276 1545.5 794.026 1538.69 788.697C1335.99 630.554 1091.34 439.74 833.748 332.898C421.019 161.765 -25.1247 206.454 -386 946.646V945.44C-25.0469 205.831 421.175 161.259 833.943 332.431C1091.62 439.273 1336.26 630.126 1539.01 788.308C1545.74 793.52 1552.39 798.693 1559 803.866ZM1559 769.834V770.495C1342.13 605.584 1067.97 401.741 783.178 296.066C367.843 141.967 -70.132 196.769 -386 885.816V884.532C-69.9764 196.147 367.999 141.462 783.373 295.599C1068.08 401.235 1342.13 604.962 1559 769.834ZM1559 735.762V736.424C1330.27 566.651 1030.7 357.829 725.217 258.222C312.061 123.493 -111.872 188.601 -386 820.124V818.801C-111.716 187.979 312.216 122.987 725.412 257.716C1030.82 357.324 1330.27 565.99 1559 735.762ZM1559 701.613V702.275C1294.21 510.294 925.63 271.446 568.022 197.664C194.427 120.576 -167.188 223.762 -386 748.636V747.275C-166.993 223.1 194.582 120.07 568.1 197.158C925.708 270.94 1294.21 509.672 1559 701.613ZM1559 667.426V668.087C1289.15 476.806 902.796 242.158 534.724 171.138C162.801 99.3785 -190.45 194.786 -386 671.043V669.643C-190.255 194.124 162.957 98.8729 534.841 170.632C902.874 241.614 1289.11 476.184 1559 667.426ZM1559 633.199V633.821C1284.79 443.746 881.945 213.921 504.188 145.079C356.912 118.242 213.449 115.87 82.9395 149.863C-47.57 183.856 -165.126 254.216 -260.625 372.842C-308.278 432.039 -350.445 503.254 -386 587.965V586.604C-350.523 502.359 -308.511 431.495 -261.053 372.531C-165.476 253.827 -47.8034 183.429 82.7839 149.396C213.371 115.364 356.912 117.736 504.265 144.612C881.984 213.416 1284.75 443.124 1559 633.199ZM1559 598.933V599.556C1266.59 401.118 818.772 163.009 415.729 110.191C277.478 92.0664 144.479 95.7614 24.8229 130.338C-94.7946 164.915 -201.108 230.374 -285.988 335.776C-323.799 382.799 -357.37 437.718 -386 501.426V500.104C-357.486 436.862 -324.032 382.216 -286.377 335.465C-201.458 229.985 -95.0669 164.448 24.6673 129.871C144.401 95.2558 277.44 91.5608 415.768 109.685C818.811 162.504 1266.51 400.496 1559 598.933ZM1559 564.629V565.251C1346.49 423.988 1047.47 264.523 743.306 166.704C516.052 93.6222 285.92 54.9227 86.9851 83.9765C-111.949 113.03 -279.725 209.799 -382.421 407.575C-383.627 409.908 -384.833 412.242 -386 414.615V413.448C-384.95 411.425 -383.938 409.403 -382.888 407.38C-280.114 209.449 -112.183 112.602 86.9073 83.5487C285.959 54.4948 516.13 93.1944 743.5 166.276C1047.54 264.017 1346.49 423.405 1559 564.629ZM1559 530.285V530.908C1331.86 382.955 1000.98 217.15 670.952 123.687C446.227 60.0956 221.89 29.9916 31.008 61.9625C-145.053 91.4441 -292.679 173.666 -386 330.992V329.942C-292.562 172.966 -145.015 90.8607 30.8913 61.418C221.89 29.4471 446.265 59.5122 671.069 123.182C1001.06 216.605 1331.82 382.371 1559 530.285ZM1559 495.903V496.525C1316.77 341.805 951.343 169.971 595.136 82.304C374.106 27.8913 156.616 5.8773 -25.6693 40.4152C-175.318 68.8078 -301.276 135.317 -386 253.36V252.465C-301.198 134.694 -175.318 68.2633 -25.7471 39.9096C156.616 5.33279 374.184 27.3468 595.252 81.7984C951.382 169.466 1316.73 341.222 1559 495.903ZM1559 461.521V462.143C1301.52 300.772 899.256 123.532 517.219 42.8655C300.818 -2.79606 90.9529 -17.4591 -82.4244 19.2957C-205.621 45.3936 -310.417 97.5116 -386 182.962V182.145C-310.378 96.8893 -205.621 44.8491 -82.5022 18.7512C90.9529 -18.0036 300.896 -3.34058 517.336 42.3599C899.295 122.987 1301.44 300.188 1559 461.521ZM24.9007 1019.96C606.65 453.625 904.819 449.853 1120.95 626.548C1216.87 704.958 1296.62 818.879 1377.8 934.9C1397.68 963.292 1417.64 991.802 1437.94 1019.96H1437.28C1417.05 991.918 1397.18 963.487 1377.34 935.211C1296.15 819.229 1216.41 705.308 1120.56 626.937C904.663 450.436 606.806 454.248 25.6398 1019.96H24.9007Z" fill="#1A0061" fill-opacity="0.1"/>
</g>
</svg>
