<svg width="104" height="41" viewBox="0 0 104 41" fill="none" xmlns="http://www.w3.org/2000/svg">
<path d="M80.2848 28V0H88.3668V21.72H102V28H80.2848Z" fill="url(#paint0_linear_62_47)"/>
<path d="M38.7507 28V0H51.8125C54.4248 0 56.6698 0.413334 58.5475 1.24C60.4523 2.06667 61.9218 3.26667 62.9558 4.84C63.9899 6.38667 64.5069 8.22667 64.5069 10.36C64.5069 12.4667 63.9899 14.2933 62.9558 15.84C61.9218 17.3867 60.4523 18.5867 58.5475 19.44C56.6698 20.2667 54.4248 20.68 51.8125 20.68H43.2407L46.8327 17.24V28H38.7507ZM46.8327 18.08L43.2407 14.44H51.3227C53.0098 14.44 54.2616 14.08 55.0779 13.36C55.9215 12.64 56.3433 11.64 56.3433 10.36C56.3433 9.05333 55.9215 8.04 55.0779 7.32C54.2616 6.6 53.0098 6.24 51.3227 6.24H43.2407L46.8327 2.6V18.08Z" fill="url(#paint1_linear_62_47)"/>
<path d="M2 28V0H10.082V21.72H23.7153V28H2Z" fill="url(#paint2_linear_62_47)"/>
<path d="M97.4689 40.8674V33.1326H100.948C101.843 33.1326 102.515 33.3168 102.962 33.6851C103.417 34.0534 103.644 34.5396 103.644 35.1436C103.644 35.5488 103.552 35.9024 103.369 36.2044C103.186 36.4991 102.935 36.7274 102.616 36.8895C102.298 37.0516 101.931 37.1326 101.518 37.1326L101.711 36.6796C102.159 36.6796 102.555 36.7606 102.901 36.9227C103.247 37.0774 103.515 37.3094 103.705 37.6188C103.902 37.9282 104 38.3076 104 38.7569C104 39.4199 103.759 39.9392 103.278 40.3149C102.796 40.6832 102.087 40.8674 101.152 40.8674H97.4689ZM99.1067 39.5193H101.029C101.457 39.5193 101.779 39.4457 101.996 39.2983C102.22 39.1436 102.332 38.9006 102.332 38.5691C102.332 38.2449 102.22 38.0055 101.996 37.8508C101.779 37.6888 101.457 37.6077 101.029 37.6077H98.9847V36.3039H100.745C101.145 36.3039 101.45 36.2302 101.66 36.0829C101.877 35.9282 101.986 35.6961 101.986 35.3867C101.986 35.0847 101.877 34.86 101.66 34.7127C101.45 34.558 101.145 34.4807 100.745 34.4807H99.1067V39.5193Z" fill="url(#paint3_linear_62_47)"/>
<path d="M88.7442 40.8674L91.9182 33.1326H93.5459L96.7301 40.8674H95.0006L92.3963 34.0387H93.0474L90.4329 40.8674H88.7442ZM90.3312 39.2099L90.7686 37.8508H94.431L94.8786 39.2099H90.3312Z" fill="url(#paint4_linear_62_47)"/>
<path d="M83.5007 40.8674V33.1326H85.1488V39.4088H88.7195V40.8674H83.5007Z" fill="url(#paint5_linear_62_47)"/>
<path d="M74.5643 39.0994L74.4728 37.0332L77.8808 33.1326H79.7119L76.6396 36.7238L75.7241 37.7845L74.5643 39.0994ZM73.0892 40.8674V33.1326H74.7271V40.8674H73.0892ZM77.9621 40.8674L75.429 37.4972L76.5074 36.2265L79.8849 40.8674H77.9621Z" fill="url(#paint6_linear_62_47)"/>
<path d="M65.6085 40.8674V33.1326H68.6909C69.3284 33.1326 69.8778 33.2468 70.3389 33.4751C70.8001 33.6961 71.1562 34.0166 71.4071 34.4365C71.6581 34.8564 71.7835 35.3573 71.7835 35.9392C71.7835 36.5138 71.6581 37.0111 71.4071 37.4309C71.1562 37.8435 70.8001 38.1602 70.3389 38.3812C69.8778 38.6022 69.3284 38.7127 68.6909 38.7127H66.524L67.2565 37.9282V40.8674H65.6085ZM70.1355 40.8674L68.3552 38.0608H70.1151L71.9158 40.8674H70.1355ZM67.2565 38.1271L66.524 37.2873H68.5993C69.108 37.2873 69.4878 37.1694 69.7387 36.9337C69.9897 36.6906 70.1151 36.3591 70.1151 35.9392C70.1151 35.512 69.9897 35.1805 69.7387 34.9448C69.4878 34.709 69.108 34.5912 68.5993 34.5912H66.524L67.2565 33.7403V38.1271Z" fill="url(#paint7_linear_62_47)"/>
<path d="M56.8837 40.8674L60.0577 33.1326H61.6854L64.8696 40.8674H63.1402L60.5359 34.0387H61.1869L58.5725 40.8674H56.8837ZM58.4707 39.2099L58.9082 37.8508H62.5705L63.0181 39.2099H58.4707Z" fill="url(#paint8_linear_62_47)"/>
<path d="M50.8257 40.8674V33.1326H53.9081C54.5456 33.1326 55.095 33.2468 55.5562 33.4751C56.0173 33.6961 56.3734 34.0166 56.6243 34.4365C56.8753 34.8564 57.0007 35.3573 57.0007 35.9392C57.0007 36.5138 56.8753 37.0111 56.6243 37.4309C56.3734 37.8508 56.0173 38.175 55.5562 38.4033C55.095 38.6243 54.5456 38.7348 53.9081 38.7348H51.7413L52.4737 37.9282V40.8674H50.8257ZM52.4737 38.1271L51.7413 37.2762H53.8166C54.3252 37.2762 54.705 37.1584 54.956 36.9227C55.2069 36.6869 55.3324 36.3591 55.3324 35.9392C55.3324 35.512 55.2069 35.1805 54.956 34.9448C54.705 34.709 54.3252 34.5912 53.8166 34.5912H51.7413L52.4737 33.7403V38.1271Z" fill="url(#paint9_linear_62_47)"/>
<path d="M39.7286 40.8674V33.1326H41.0918L45.2933 38.7017H44.6321V33.1326H46.2598V40.8674H44.9067L40.6951 35.2983H41.3563V40.8674H39.7286Z" fill="url(#paint10_linear_62_47)"/>
<path d="M33.5891 40.8674V33.1326H35.2371V39.4088H38.8078V40.8674H33.5891Z" fill="url(#paint11_linear_62_47)"/>
<path d="M28.4644 41C27.9015 41 27.3793 40.9006 26.8977 40.7017C26.423 40.5028 26.0093 40.2228 25.6566 39.8619C25.3107 39.5009 25.0394 39.0773 24.8428 38.5912C24.6529 38.105 24.5579 37.5746 24.5579 37C24.5579 36.4254 24.6529 35.895 24.8428 35.4088C25.0394 34.9227 25.3141 34.4991 25.6668 34.1381C26.0195 33.7772 26.4332 33.4972 26.9079 33.2983C27.3827 33.0994 27.8981 33 28.4542 33C29.0171 33 29.5326 33.0994 30.0005 33.2983C30.4753 33.4972 30.8856 33.7772 31.2315 34.1381C31.5841 34.4991 31.8588 34.9227 32.0555 35.4088C32.2522 35.8877 32.3505 36.418 32.3505 37C32.3505 37.5746 32.2522 38.1087 32.0555 38.6022C31.8588 39.0884 31.5841 39.512 31.2315 39.8729C30.8856 40.2265 30.4753 40.5028 30.0005 40.7017C29.5326 40.9006 29.0205 41 28.4644 41ZM28.4542 39.4751C28.773 39.4751 29.0646 39.4162 29.3291 39.2983C29.6004 39.1805 29.8378 39.011 30.0412 38.7901C30.2447 38.5691 30.4007 38.3076 30.5092 38.0055C30.6245 37.7035 30.6821 37.3683 30.6821 37C30.6821 36.6317 30.6245 36.2965 30.5092 35.9945C30.4007 35.6924 30.2447 35.4309 30.0412 35.2099C29.8445 34.9889 29.6106 34.8195 29.3393 34.7017C29.068 34.5838 28.773 34.5249 28.4542 34.5249C28.1355 34.5249 27.8404 34.5838 27.5692 34.7017C27.3047 34.8195 27.0707 34.9889 26.8672 35.2099C26.6638 35.4309 26.5044 35.6924 26.3891 35.9945C26.2806 36.2965 26.2263 36.6317 26.2263 37C26.2263 37.361 26.2806 37.6961 26.3891 38.0055C26.5044 38.3076 26.6604 38.5691 26.857 38.7901C27.0605 39.011 27.2979 39.1805 27.5692 39.2983C27.8404 39.4162 28.1355 39.4751 28.4542 39.4751Z" fill="url(#paint12_linear_62_47)"/>
<path d="M21.1016 41C20.5522 41 20.0402 40.9042 19.5654 40.7127C19.0975 40.5138 18.6905 40.2339 18.3447 39.8729C17.9988 39.512 17.7275 39.0884 17.5308 38.6022C17.3409 38.116 17.246 37.582 17.246 37C17.246 36.418 17.3409 35.884 17.5308 35.3978C17.7275 34.9116 17.9988 34.488 18.3447 34.1271C18.6973 33.7661 19.1076 33.4899 19.5756 33.2983C20.0436 33.0994 20.5556 33 21.1117 33C21.7289 33 22.285 33.1179 22.7801 33.3536C23.282 33.582 23.7025 33.9208 24.0416 34.3702L22.9836 35.4309C22.7394 35.1289 22.4682 34.9042 22.1697 34.7569C21.8713 34.6022 21.5458 34.5249 21.1931 34.5249C20.8608 34.5249 20.5556 34.5838 20.2776 34.7017C19.9995 34.8195 19.7587 34.9889 19.5553 35.2099C19.3518 35.4309 19.1924 35.6924 19.0771 35.9945C18.9686 36.2965 18.9144 36.6317 18.9144 37C18.9144 37.3683 18.9686 37.7035 19.0771 38.0055C19.1924 38.3076 19.3518 38.5691 19.5553 38.7901C19.7587 39.011 19.9995 39.1805 20.2776 39.2983C20.5556 39.4162 20.8608 39.4751 21.1931 39.4751C21.5458 39.4751 21.8713 39.4015 22.1697 39.2541C22.4682 39.0994 22.7394 38.8674 22.9836 38.558L24.0416 39.6188C23.7025 40.0681 23.282 40.4107 22.7801 40.6464C22.285 40.8821 21.7255 41 21.1016 41Z" fill="url(#paint13_linear_62_47)"/>
<path d="M9.47766 40.8674V33.1326H10.8409L15.0423 38.7017H14.3811V33.1326H16.0088V40.8674H14.6558L10.4441 35.2983H11.1054V40.8674H9.47766Z" fill="url(#paint14_linear_62_47)"/>
<path d="M6.13959 40.8674V33.1326H7.78763V40.8674H6.13959Z" fill="url(#paint15_linear_62_47)"/>
<path d="M0 40.8674V33.1326H1.64804V39.4088H5.21879V40.8674H0Z" fill="url(#paint16_linear_62_47)"/>
<defs>
<linearGradient id="paint0_linear_62_47" x1="50.7418" y1="-11" x2="12.2188" y2="42.469" gradientUnits="userSpaceOnUse">
<stop stop-color="#1A0061"/>
<stop offset="1" stop-color="#3500D4"/>
</linearGradient>
<linearGradient id="paint1_linear_62_47" x1="50.7418" y1="-11" x2="12.2188" y2="42.469" gradientUnits="userSpaceOnUse">
<stop stop-color="#1A0061"/>
<stop offset="1" stop-color="#3500D4"/>
</linearGradient>
<linearGradient id="paint2_linear_62_47" x1="50.7418" y1="-11" x2="12.2188" y2="42.469" gradientUnits="userSpaceOnUse">
<stop stop-color="#1A0061"/>
<stop offset="1" stop-color="#3500D4"/>
</linearGradient>
<linearGradient id="paint3_linear_62_47" x1="55.0231" y1="29.8177" x2="51.1642" y2="51.0975" gradientUnits="userSpaceOnUse">
<stop stop-color="#1A0061"/>
<stop offset="1" stop-color="#3500D4"/>
</linearGradient>
<linearGradient id="paint4_linear_62_47" x1="55.0232" y1="29.8177" x2="51.1642" y2="51.0975" gradientUnits="userSpaceOnUse">
<stop stop-color="#1A0061"/>
<stop offset="1" stop-color="#3500D4"/>
</linearGradient>
<linearGradient id="paint5_linear_62_47" x1="55.0231" y1="29.8177" x2="51.1642" y2="51.0975" gradientUnits="userSpaceOnUse">
<stop stop-color="#1A0061"/>
<stop offset="1" stop-color="#3500D4"/>
</linearGradient>
<linearGradient id="paint6_linear_62_47" x1="55.0231" y1="29.8177" x2="51.1642" y2="51.0975" gradientUnits="userSpaceOnUse">
<stop stop-color="#1A0061"/>
<stop offset="1" stop-color="#3500D4"/>
</linearGradient>
<linearGradient id="paint7_linear_62_47" x1="55.0232" y1="29.8177" x2="51.1642" y2="51.0975" gradientUnits="userSpaceOnUse">
<stop stop-color="#1A0061"/>
<stop offset="1" stop-color="#3500D4"/>
</linearGradient>
<linearGradient id="paint8_linear_62_47" x1="55.0231" y1="29.8177" x2="51.1642" y2="51.0975" gradientUnits="userSpaceOnUse">
<stop stop-color="#1A0061"/>
<stop offset="1" stop-color="#3500D4"/>
</linearGradient>
<linearGradient id="paint9_linear_62_47" x1="55.0232" y1="29.8177" x2="51.1642" y2="51.0975" gradientUnits="userSpaceOnUse">
<stop stop-color="#1A0061"/>
<stop offset="1" stop-color="#3500D4"/>
</linearGradient>
<linearGradient id="paint10_linear_62_47" x1="55.0231" y1="29.8177" x2="51.1642" y2="51.0975" gradientUnits="userSpaceOnUse">
<stop stop-color="#1A0061"/>
<stop offset="1" stop-color="#3500D4"/>
</linearGradient>
<linearGradient id="paint11_linear_62_47" x1="55.0231" y1="29.8177" x2="51.1642" y2="51.0975" gradientUnits="userSpaceOnUse">
<stop stop-color="#1A0061"/>
<stop offset="1" stop-color="#3500D4"/>
</linearGradient>
<linearGradient id="paint12_linear_62_47" x1="55.0232" y1="29.8177" x2="51.1642" y2="51.0975" gradientUnits="userSpaceOnUse">
<stop stop-color="#1A0061"/>
<stop offset="1" stop-color="#3500D4"/>
</linearGradient>
<linearGradient id="paint13_linear_62_47" x1="55.0231" y1="29.8177" x2="51.1642" y2="51.0975" gradientUnits="userSpaceOnUse">
<stop stop-color="#1A0061"/>
<stop offset="1" stop-color="#3500D4"/>
</linearGradient>
<linearGradient id="paint14_linear_62_47" x1="55.0232" y1="29.8177" x2="51.1642" y2="51.0975" gradientUnits="userSpaceOnUse">
<stop stop-color="#1A0061"/>
<stop offset="1" stop-color="#3500D4"/>
</linearGradient>
<linearGradient id="paint15_linear_62_47" x1="55.0231" y1="29.8177" x2="51.1642" y2="51.0975" gradientUnits="userSpaceOnUse">
<stop stop-color="#1A0061"/>
<stop offset="1" stop-color="#3500D4"/>
</linearGradient>
<linearGradient id="paint16_linear_62_47" x1="55.0232" y1="29.8177" x2="51.1642" y2="51.0975" gradientUnits="userSpaceOnUse">
<stop stop-color="#1A0061"/>
<stop offset="1" stop-color="#3500D4"/>
</linearGradient>
</defs>
</svg>
