<svg width="34" height="14" viewBox="0 0 34 14" fill="none" xmlns="http://www.w3.org/2000/svg">
<g clip-path="url(#clip0_1_3)">
<path fill-rule="evenodd" clip-rule="evenodd" d="M26.0731 1.50898C25.5843 1.96915 25.571 2.72883 26.0435 3.20578L28.817 6.00608L2.25396 5.54242C1.57433 5.53056 1.014 6.05812 1.00243 6.72076C0.990866 7.3834 1.53244 7.93019 2.21207 7.94206L28.7752 8.40572L25.9056 11.1075C25.4168 11.5677 25.4035 12.3274 25.8759 12.8043C26.3483 13.2813 27.1275 13.2949 27.6162 12.8347L32.6223 8.12134C33.1111 7.66118 33.1244 6.90149 32.6519 6.42454L27.8133 1.53936C27.341 1.06241 26.5618 1.04881 26.0731 1.50898Z" fill="#BAACE4"/>
</g>
<defs>
<clipPath id="clip0_1_3">
<rect width="32" height="12" fill="white" transform="translate(1.10715 0.721672) rotate(1)"/>
</clipPath>
</defs>
</svg>
