<svg width="34" height="39" viewBox="0 0 34 39" fill="none" xmlns="http://www.w3.org/2000/svg">
<path d="M24.8767 29.9468H9.12332C3.48499 29.9468 1.77082 28.2291 1.77082 22.5791V13.579C1.77082 7.92911 3.48499 6.21143 9.12332 6.21143H11.3333C11.6145 6.21329 11.8837 6.32605 12.0826 6.52532C12.2814 6.72458 12.394 6.99431 12.3958 7.27611C12.394 7.55791 12.2814 7.82763 12.0826 8.0269C11.8837 8.22616 11.6145 8.33893 11.3333 8.34079H9.12332C4.67499 8.34079 3.89582 9.12156 3.89582 13.579V22.565C3.89582 27.0224 4.67499 27.8032 9.12332 27.8032H24.8625C29.3108 27.8032 30.09 27.0224 30.09 22.565V21.3015C30.09 21.0192 30.2019 20.7484 30.4012 20.5487C30.6004 20.349 30.8707 20.2368 31.1525 20.2368C31.4343 20.2368 31.7045 20.349 31.9038 20.5487C32.103 20.7484 32.215 21.0192 32.215 21.3015V22.565C32.2292 28.2291 30.515 29.9468 24.8767 29.9468Z" fill="#BAACE4"/>
<path d="M16.9999 36.7328C16.7187 36.731 16.4495 36.6182 16.2507 36.4189C16.0518 36.2197 15.9393 35.9499 15.9374 35.6681V28.8826C15.9393 28.6008 16.0518 28.331 16.2507 28.1318C16.4495 27.9325 16.7187 27.8197 16.9999 27.8179C17.2811 27.8197 17.5503 27.9325 17.7492 28.1318C17.948 28.331 18.0606 28.6008 18.0624 28.8826V35.6681C18.0606 35.9499 17.948 36.2197 17.7492 36.4189C17.5503 36.6182 17.2811 36.731 16.9999 36.7328Z" fill="#BAACE4"/>
<path d="M31.1667 23.9565H2.83332C2.5521 23.9547 2.28293 23.8419 2.08407 23.6426C1.88522 23.4434 1.77268 23.1736 1.77082 22.8918C1.77268 22.61 1.88522 22.3403 2.08407 22.141C2.28293 21.9418 2.5521 21.829 2.83332 21.8271H31.1667C31.4479 21.829 31.717 21.9418 31.9159 22.141C32.1148 22.3403 32.2273 22.61 32.2292 22.8918C32.2273 23.1736 32.1148 23.4434 31.9159 23.6426C31.717 23.8419 31.4479 23.9547 31.1667 23.9565Z" fill="#BAACE4"/>
<path d="M23.375 36.7319H10.625C10.3438 36.73 10.0746 36.6173 9.87575 36.418C9.67689 36.2187 9.56436 35.949 9.5625 35.6672C9.56436 35.3854 9.67689 35.1157 9.87575 34.9164C10.0746 34.7172 10.3438 34.6044 10.625 34.6025H23.375C23.6562 34.6044 23.9254 34.7172 24.1242 34.9164C24.3231 35.1157 24.4356 35.3854 24.4375 35.6672C24.4356 35.949 24.3231 36.2187 24.1242 36.418C23.9254 36.6173 23.6562 36.73 23.375 36.7319Z" fill="#BAACE4"/>
<path d="M23.9955 19.0075C22.2227 19.0075 20.4898 18.4808 19.0158 17.4938C17.5418 16.5069 16.3929 15.1042 15.7145 13.463C15.0361 11.8218 14.8586 10.0159 15.2045 8.27362C15.5503 6.53135 16.404 4.93097 17.6575 3.67486C18.9111 2.41875 20.5082 1.56333 22.2469 1.21677C23.9856 0.870214 25.7878 1.04808 27.4256 1.72788C29.0634 2.40768 30.4633 3.55889 31.4482 5.03591C32.4331 6.51294 32.9587 8.24945 32.9587 10.0259C32.9569 12.4074 32.0119 14.6908 30.3314 16.3748C28.6509 18.0588 26.3721 19.0056 23.9955 19.0075ZM23.9955 2.29768C22.4701 2.29768 20.979 2.75093 19.7108 3.60011C18.4425 4.4493 17.454 5.65627 16.8702 7.06841C16.2865 8.48055 16.1338 10.0344 16.4314 11.5336C16.7289 13.0327 17.4635 14.4097 18.5421 15.4905C19.6206 16.5713 20.9949 17.3073 22.4909 17.6055C23.9869 17.9037 25.5376 17.7507 26.9469 17.1658C28.3561 16.5808 29.5606 15.5903 30.4081 14.3194C31.2555 13.0485 31.7078 11.5543 31.7078 10.0259C31.7052 7.97703 30.8918 6.01286 29.446 4.56412C28.0003 3.11537 26.0401 2.30031 23.9955 2.29768Z" fill="#BAACE4"/>
<path d="M21.4938 18.1719H20.6537C20.4885 18.1704 20.3304 18.104 20.2136 17.9869C20.0967 17.8698 20.0304 17.7114 20.0289 17.5458C20.0278 17.3822 20.0911 17.2246 20.2052 17.1074C20.3192 16.9902 20.4748 16.9228 20.6381 16.9198C19.3291 12.4183 19.3291 7.63586 20.6381 3.1343C20.4753 3.12984 20.3207 3.06139 20.2078 2.94374C20.0949 2.82608 20.0327 2.66865 20.0346 2.50543C20.0361 2.34082 20.1016 2.18328 20.2172 2.06636C20.3328 1.94943 20.4894 1.88235 20.6537 1.87939H21.4881C21.587 1.88016 21.6844 1.90389 21.7727 1.94872C21.8609 1.99355 21.9376 2.05825 21.9967 2.13776C22.0547 2.21892 22.0925 2.31278 22.1071 2.41153C22.1216 2.51029 22.1124 2.6111 22.0803 2.70559C20.5129 7.46119 20.5129 12.5958 22.0803 17.3514C22.1124 17.4459 22.1216 17.5467 22.1071 17.6454C22.0925 17.7442 22.0547 17.838 21.9967 17.9192C21.9368 17.9961 21.8606 18.0586 21.7736 18.1023C21.6867 18.146 21.5911 18.1698 21.4938 18.1719Z" fill="#BAACE4"/>
<path d="M26.4958 18.1714C26.4268 18.1725 26.3581 18.1609 26.2933 18.1373C26.2156 18.1112 26.1438 18.07 26.0821 18.016C26.0204 17.9619 25.97 17.8962 25.9337 17.8226C25.8975 17.7489 25.8762 17.6688 25.8711 17.5869C25.8659 17.5049 25.877 17.4228 25.9037 17.3452C27.4714 12.5891 27.4714 7.45401 25.9037 2.69798C25.8507 2.5406 25.8623 2.36858 25.9359 2.21976C26.0095 2.07095 26.139 1.95752 26.2961 1.90443C26.4531 1.85135 26.6248 1.86295 26.7733 1.9367C26.9218 2.01044 27.035 2.14028 27.088 2.29766C28.747 7.30693 28.747 12.7192 27.088 17.7285C27.0497 17.8561 26.9715 17.9681 26.8649 18.0479C26.7583 18.1276 26.6289 18.1709 26.4958 18.1714Z" fill="#BAACE4"/>
<path d="M23.9942 14.3708C21.6663 14.3734 19.35 14.0412 17.1163 13.3842C17.1141 13.5504 17.046 13.709 16.9271 13.8249C16.8082 13.9408 16.6482 14.0047 16.4824 14.0024C16.3165 14.0002 16.1583 13.932 16.0426 13.8129C15.9269 13.6937 15.8632 13.5334 15.8654 13.3672V12.5325C15.8662 12.4333 15.8899 12.3357 15.9346 12.2473C15.9793 12.1589 16.0439 12.0821 16.1232 12.0228C16.2042 11.9647 16.2979 11.9268 16.3965 11.9122C16.495 11.8977 16.5956 11.9069 16.6899 11.9391C21.4362 13.51 26.5608 13.51 31.3071 11.9391C31.4014 11.9069 31.502 11.8977 31.6005 11.9122C31.6991 11.9268 31.7927 11.9647 31.8737 12.0228C31.9545 12.0807 32.0201 12.1572 32.065 12.246C32.1099 12.3347 32.1327 12.433 32.1316 12.5325V13.3672C32.1301 13.5328 32.0638 13.6911 31.947 13.8082C31.8301 13.9253 31.6721 13.9917 31.5068 13.9932C31.3435 13.9944 31.1862 13.9309 31.0693 13.8166C30.9523 13.7024 30.8851 13.5465 30.8821 13.3828C28.6449 14.0398 26.3255 14.3725 23.9942 14.3708Z" fill="#BAACE4"/>
<path d="M31.4981 8.14638C31.43 8.14714 31.3623 8.1356 31.2983 8.11231C26.5525 6.5417 21.4284 6.5417 16.6826 8.11231C16.5257 8.16552 16.3542 8.15414 16.2057 8.08067C16.0572 8.0072 15.9439 7.87766 15.8907 7.72051C15.8405 7.56233 15.8538 7.39078 15.9279 7.24232C16.002 7.09386 16.1309 6.98022 16.2873 6.92555C21.2863 5.2631 26.6875 5.2631 31.6865 6.92555C31.7646 6.95132 31.8368 6.9924 31.8989 7.04639C31.9611 7.10038 32.0119 7.16621 32.0484 7.24005C32.0849 7.31389 32.1064 7.39426 32.1116 7.4765C32.1169 7.55874 32.1057 7.6412 32.0789 7.71909C32.0402 7.84308 31.963 7.95142 31.8585 8.02829C31.754 8.10517 31.6277 8.14655 31.4981 8.14638Z" fill="#BAACE4"/>
</svg>
