<svg width="33" height="34" viewBox="0 0 33 34" fill="none" xmlns="http://www.w3.org/2000/svg">
<path d="M18.1612 33.9989H14.2637C13.7483 34.0044 13.238 33.8949 12.7702 33.6784C12.3024 33.4618 11.8887 33.1437 11.5593 32.7472C11.2787 32.4044 11.0799 32.0022 10.9782 31.571C10.8764 31.1399 10.8743 30.6912 10.9721 30.2591L11.6057 27.462C11.6647 27.2071 11.8084 26.9797 12.0133 26.8169C12.2182 26.6541 12.4721 26.5656 12.7338 26.5657H19.688C19.9497 26.5656 20.2037 26.6541 20.4085 26.8169C20.6134 26.9797 20.7571 27.2071 20.8161 27.462L21.4497 30.2591C21.5562 30.696 21.5614 31.1515 21.465 31.5908C21.3686 32.03 21.1731 32.4414 20.8934 32.7936C20.554 33.1823 20.1334 33.4917 19.6613 33.7C19.1892 33.9083 18.6771 34.0104 18.1612 33.9989ZM13.661 28.8528L13.2283 30.7537C13.2099 30.846 13.2129 30.9414 13.237 31.0325C13.2611 31.1235 13.3057 31.2079 13.3674 31.2791C13.4786 31.4062 13.6167 31.5069 13.7718 31.5737C13.9269 31.6406 14.095 31.6719 14.2637 31.6654H18.1612C18.3324 31.6781 18.5043 31.6529 18.6646 31.5914C18.8248 31.53 18.9696 31.4339 19.0884 31.31C19.1493 31.2295 19.1907 31.1359 19.2095 31.0368C19.2282 30.9376 19.2238 30.8354 19.1966 30.7382L18.7639 28.8374H13.6641L13.661 28.8528Z" fill="#3500D4"/>
<path d="M19.6881 28.8521C19.5244 28.8542 19.3623 28.8208 19.2129 28.7541C19.0634 28.6874 18.9303 28.589 18.8226 28.4658C18.6197 28.2353 18.5157 27.9342 18.5331 27.6277C18.5504 27.3211 18.6878 27.0337 18.9154 26.8277L21.5966 24.4478C22.6629 23.5051 22.6165 23.2733 21.8284 22.2842L17.115 16.3036C17.0136 16.1567 16.8803 16.0345 16.7251 15.9462C16.5699 15.8579 16.3968 15.8058 16.2187 15.7937C16.0405 15.8058 15.8674 15.8579 15.7122 15.9462C15.557 16.0345 15.4238 16.1567 15.3224 16.3036L10.6012 22.2842C9.76672 23.3506 9.78217 23.5824 10.8021 24.4169L13.5065 26.8277C13.6249 26.9278 13.722 27.0506 13.7921 27.1889C13.8622 27.3271 13.9039 27.478 13.9147 27.6326C13.9255 27.7873 13.9052 27.9425 13.8551 28.0892C13.8049 28.2359 13.7259 28.371 13.6227 28.4866C13.5194 28.6023 13.3941 28.6961 13.254 28.7624C13.1139 28.8288 12.9619 28.8665 12.8071 28.8732C12.6522 28.8799 12.4976 28.8555 12.3523 28.8014C12.207 28.7474 12.074 28.6648 11.9612 28.5585L9.28765 26.1786C7.34048 24.5869 7.17048 22.8869 8.77768 20.847L13.4911 14.8664C13.8091 14.4433 14.2193 14.0982 14.6906 13.8572C15.1618 13.6163 15.6818 13.4857 16.2109 13.4756C16.7401 13.4857 17.2601 13.6163 17.7313 13.8572C18.2026 14.0982 18.6128 14.4433 18.9308 14.8664L23.6442 20.847C25.236 22.856 25.0814 24.4632 23.1342 26.1786L20.4607 28.5585C20.2469 28.7461 19.9726 28.8504 19.6881 28.8521Z" fill="#3500D4"/>
<path d="M16.2106 20.3214C15.9039 20.3194 15.6102 20.1966 15.3933 19.9797C15.1764 19.7627 15.0536 19.4691 15.0516 19.1623V15.2525C15.0536 14.9458 15.1764 14.6521 15.3933 14.4352C15.6102 14.2183 15.9039 14.0955 16.2106 14.0935C16.5174 14.0955 16.811 14.2183 17.0279 14.4352C17.2449 14.6521 17.3676 14.9458 17.3697 15.2525V19.1623C17.3699 19.3146 17.34 19.4654 17.2818 19.6061C17.2237 19.7468 17.1383 19.8747 17.0306 19.9824C16.923 20.09 16.7951 20.1754 16.6544 20.2336C16.5137 20.2917 16.3629 20.3216 16.2106 20.3214Z" fill="#3500D4"/>
<path d="M16.9991 6.95396H15.4537C14.7375 6.95071 14.0515 6.66474 13.545 6.15826C13.0385 5.65179 12.7526 4.9658 12.7493 4.24955V2.70417C12.7526 1.98792 13.0385 1.30193 13.545 0.795453C14.0515 0.288981 14.7375 0.00300791 15.4537 -0.000244141L16.9991 -0.000244141C17.7154 0.00300791 18.4013 0.288981 18.9078 0.795453C19.4143 1.30193 19.7003 1.98792 19.7035 2.70417V4.24955C19.7027 4.96655 19.4175 5.65396 18.9105 6.16095C18.4035 6.66795 17.7161 6.95314 16.9991 6.95396ZM15.4537 2.31782C15.4029 2.31741 15.3524 2.32712 15.3054 2.34639C15.2583 2.36566 15.2156 2.39411 15.1796 2.43006C15.1437 2.46602 15.1152 2.50878 15.0959 2.55584C15.0767 2.6029 15.067 2.65332 15.0674 2.70417V4.24955C15.067 4.3004 15.0767 4.35082 15.0959 4.39788C15.1152 4.44494 15.1437 4.4877 15.1796 4.52365C15.2156 4.55961 15.2583 4.58805 15.3054 4.60732C15.3524 4.62659 15.4029 4.63631 15.4537 4.63589H16.9991C17.05 4.63631 17.1004 4.62659 17.1474 4.60732C17.1945 4.58805 17.2372 4.55961 17.2732 4.52365C17.3092 4.4877 17.3376 4.44494 17.3569 4.39788C17.3761 4.35082 17.3859 4.3004 17.3854 4.24955V2.70417C17.3859 2.65332 17.3761 2.6029 17.3569 2.55584C17.3376 2.50878 17.3092 2.46602 17.2732 2.43006C17.2372 2.39411 17.1945 2.36566 17.1474 2.34639C17.1004 2.32712 17.05 2.31741 16.9991 2.31782H15.4537Z" fill="#3500D4"/>
<path d="M4.24979 21.1256H2.70441C1.98816 21.1223 1.30217 20.8364 0.795697 20.3299C0.289225 19.8234 0.00325205 19.1374 0 18.4212L0 16.8758C0.00325205 16.1595 0.289225 15.4736 0.795697 14.9671C1.30217 14.4606 1.98816 14.1746 2.70441 14.1714H4.24979C4.96605 14.1746 5.65204 14.4606 6.15851 14.9671C6.66498 15.4736 6.95095 16.1595 6.95421 16.8758V18.4212C6.95095 19.1374 6.66498 19.8234 6.15851 20.3299C5.65204 20.8364 4.96605 21.1223 4.24979 21.1256ZM2.70441 16.4895C2.65356 16.489 2.60314 16.4988 2.55608 16.518C2.50902 16.5373 2.46627 16.5657 2.43031 16.6017C2.39435 16.6377 2.36591 16.6804 2.34664 16.7275C2.32737 16.7745 2.31766 16.8249 2.31807 16.8758V18.4212C2.31766 18.472 2.32737 18.5225 2.34664 18.5695C2.36591 18.6166 2.39435 18.6593 2.43031 18.6953C2.46627 18.7312 2.50902 18.7597 2.55608 18.779C2.60314 18.7982 2.65356 18.8079 2.70441 18.8075H4.24979C4.30064 18.8079 4.35107 18.7982 4.39813 18.779C4.44519 18.7597 4.48794 18.7312 4.5239 18.6953C4.55985 18.6593 4.5883 18.6166 4.60757 18.5695C4.62684 18.5225 4.63655 18.472 4.63614 18.4212V16.8758C4.63655 16.8249 4.62684 16.7745 4.60757 16.7275C4.5883 16.6804 4.55985 16.6377 4.5239 16.6017C4.48794 16.5657 4.44519 16.5373 4.39813 16.518C4.35107 16.4988 4.30064 16.489 4.24979 16.4895H2.70441Z" fill="#3500D4"/>
<path d="M29.6867 21.1256H28.1413C27.4251 21.1223 26.7391 20.8364 26.2326 20.3299C25.7261 19.8234 25.4402 19.1374 25.4369 18.4212V16.8758C25.4402 16.1595 25.7261 15.4736 26.2326 14.9671C26.7391 14.4606 27.4251 14.1746 28.1413 14.1714H29.6867C30.4029 14.1746 31.0889 14.4606 31.5954 14.9671C32.1019 15.4736 32.3879 16.1595 32.3911 16.8758V18.4212C32.3903 19.1382 32.1051 19.8256 31.5981 20.3326C31.0911 20.8396 30.4037 21.1248 29.6867 21.1256ZM28.1413 16.4895C28.0905 16.489 28.04 16.4988 27.993 16.518C27.9459 16.5373 27.9032 16.5657 27.8672 16.6017C27.8313 16.6377 27.8028 16.6804 27.7835 16.7275C27.7643 16.7745 27.7546 16.8249 27.755 16.8758V18.4212C27.7546 18.472 27.7643 18.5225 27.7835 18.5695C27.8028 18.6166 27.8313 18.6593 27.8672 18.6953C27.9032 18.7312 27.9459 18.7597 27.993 18.779C28.04 18.7982 28.0905 18.8079 28.1413 18.8075H29.6867C29.7375 18.8079 29.788 18.7982 29.835 18.779C29.8821 18.7597 29.9248 18.7312 29.9608 18.6953C29.9968 18.6593 30.0252 18.6166 30.0445 18.5695C30.0637 18.5225 30.0735 18.472 30.073 18.4212V16.8758C30.0735 16.8249 30.0637 16.7745 30.0445 16.7275C30.0252 16.6804 29.9968 16.6377 29.9608 16.6017C29.9248 16.5657 29.8821 16.5373 29.835 16.518C29.788 16.4988 29.7375 16.489 29.6867 16.4895H28.1413Z" fill="#3500D4"/>
<path d="M3.44607 16.4895C3.1393 16.4874 2.84567 16.3647 2.62875 16.1478C2.41183 15.9308 2.28906 15.6372 2.28704 15.3304C2.28725 12.1415 3.45819 9.06367 5.57763 6.68101C7.69707 4.29834 10.6175 2.7767 13.7847 2.40488C14.0894 2.37342 14.3943 2.46257 14.634 2.65322C14.8738 2.84388 15.0293 3.12087 15.0673 3.42483C15.1017 3.73008 15.0136 4.0365 14.8224 4.27694C14.6312 4.51737 14.3525 4.6722 14.0474 4.70749C11.4455 5.01416 9.04671 6.26527 7.30619 8.22343C5.56566 10.1816 4.60451 12.7105 4.60511 15.3304C4.60308 15.6372 4.48032 15.9308 4.26339 16.1478C4.04647 16.3647 3.75284 16.4874 3.44607 16.4895Z" fill="#3500D4"/>
<path d="M28.9449 16.4924C28.6382 16.4903 28.3445 16.3676 28.1276 16.1507C27.9107 15.9337 27.7879 15.6401 27.7859 15.3333C27.785 12.726 26.8309 10.2091 25.1031 8.25643C23.3753 6.3038 20.9932 5.05031 18.4054 4.73203C18.2551 4.71405 18.1099 4.66657 17.978 4.59231C17.8461 4.51806 17.7301 4.41849 17.6368 4.29931C17.5435 4.18014 17.4746 4.04371 17.4341 3.89786C17.3936 3.752 17.3824 3.59959 17.4009 3.44937C17.4182 3.29734 17.4658 3.15032 17.5409 3.01698C17.6159 2.88365 17.7169 2.76671 17.8379 2.67307C17.9589 2.57944 18.0975 2.511 18.2454 2.4718C18.3933 2.43261 18.5476 2.42345 18.6991 2.44487C21.8493 2.83181 24.7494 4.35735 26.8529 6.73413C28.9564 9.11091 30.1182 12.1748 30.1194 15.3488C30.1106 15.6546 29.983 15.945 29.7638 16.1585C29.5446 16.3719 29.2509 16.4917 28.9449 16.4924Z" fill="#3500D4"/>
</svg>
