<svg width="34" height="34" viewBox="0 0 34 34" fill="none" xmlns="http://www.w3.org/2000/svg">
<path d="M25.7926 26.4409H8.20744C1.91349 26.4409 0 24.5274 0 18.2335V8.20744C0 1.91349 1.91349 0 8.20744 0H25.7767C32.0707 0 33.9842 1.91349 33.9842 8.20744V18.2177C34 24.5274 32.0865 26.4409 25.7926 26.4409ZM8.20744 2.37209C3.24186 2.37209 2.37209 3.24186 2.37209 8.20744V18.2177C2.37209 23.1833 3.24186 24.053 8.20744 24.053H25.7767C30.7423 24.053 31.6121 23.1833 31.6121 18.2177V8.20744C31.6121 3.24186 30.7423 2.37209 25.7767 2.37209H8.20744Z" fill="#BAACE4"/>
<path d="M16.9999 34C16.686 33.9979 16.3856 33.8723 16.1636 33.6503C15.9416 33.4284 15.816 33.1279 15.8139 32.814V25.2549C15.816 24.941 15.9416 24.6405 16.1636 24.4185C16.3856 24.1965 16.686 24.0709 16.9999 24.0688C17.3139 24.0709 17.6143 24.1965 17.8363 24.4185C18.0583 24.6405 18.1839 24.941 18.186 25.2549V32.814C18.1839 33.1279 18.0583 33.4284 17.8363 33.6503C17.6143 33.8723 17.3139 33.9979 16.9999 34Z" fill="#BAACE4"/>
<path d="M32.814 19.7683H1.18605C0.872127 19.7663 0.571654 19.6406 0.349675 19.4187C0.127696 19.1967 0.00207214 18.8962 0 18.5823C0.00207214 18.2684 0.127696 17.9679 0.349675 17.7459C0.571654 17.5239 0.872127 17.3983 1.18605 17.3962H32.814C33.1279 17.3983 33.4283 17.5239 33.6503 17.7459C33.8723 17.9679 33.9979 18.2684 34 18.5823C33.9979 18.8962 33.8723 19.1967 33.6503 19.4187C33.4283 19.6406 33.1279 19.7663 32.814 19.7683Z" fill="#BAACE4"/>
<path d="M24.1163 34.001H9.88372C9.5698 33.9989 9.26932 33.8733 9.04734 33.6513C8.82537 33.4293 8.69974 33.1289 8.69767 32.815C8.69974 32.501 8.82537 32.2006 9.04734 31.9786C9.26932 31.7566 9.5698 31.631 9.88372 31.6289H24.1163C24.4302 31.631 24.7307 31.7566 24.9526 31.9786C25.1746 32.2006 25.3002 32.501 25.3023 32.815C25.3002 33.1289 25.1746 33.4293 24.9526 33.6513C24.7307 33.8733 24.4302 33.9989 24.1163 34.001Z" fill="#BAACE4"/>
<path d="M13.2647 14.5519C13.1177 14.5524 12.972 14.5235 12.8363 14.467C12.7005 14.4106 12.5774 14.3276 12.474 14.223L9.47886 11.231C9.27141 11.0201 9.15515 10.7361 9.15515 10.4403C9.15515 10.1445 9.27141 9.86051 9.47886 9.64961L12.474 6.65445C12.6884 6.46936 12.9648 6.37224 13.2478 6.38259C13.5308 6.39293 13.7994 6.50999 13.9996 6.71023C14.1999 6.91048 14.3169 7.17908 14.3273 7.46208C14.3376 7.74508 14.2405 8.02151 14.0554 8.23584L11.8557 10.4403L14.0554 12.6353C14.2629 12.8462 14.3791 13.1302 14.3791 13.426C14.3791 13.7218 14.2629 14.0058 14.0554 14.2167C13.9526 14.3224 13.8297 14.4065 13.6939 14.4641C13.5581 14.5217 13.4122 14.5515 13.2647 14.5519Z" fill="#BAACE4"/>
<path d="M20.7383 14.5527C20.5913 14.5531 20.4456 14.5243 20.3098 14.4678C20.1741 14.4113 20.0509 14.3283 19.9476 14.2238C19.7401 14.0129 19.6239 13.7289 19.6239 13.4331C19.6239 13.1372 19.7401 12.8533 19.9476 12.6424L22.1505 10.4411L19.946 8.23975C19.7609 8.02542 19.6638 7.74898 19.6742 7.46598C19.6845 7.18298 19.8016 6.91438 20.0018 6.71414C20.202 6.51389 20.4706 6.39684 20.7536 6.38649C21.0366 6.37614 21.3131 6.47327 21.5274 6.65836L24.5226 9.65036C24.73 9.86125 24.8463 10.1452 24.8463 10.4411C24.8463 10.7369 24.73 11.0209 24.5226 11.2318L21.5306 14.2206C21.4273 14.3259 21.304 14.4096 21.168 14.4666C21.0319 14.5237 20.8858 14.5529 20.7383 14.5527Z" fill="#BAACE4"/>
</svg>
