<svg width="34" height="34" viewBox="0 0 34 34" fill="none" xmlns="http://www.w3.org/2000/svg">
<path d="M33.4845 30.5955L25.7833 22.8944C27.9517 19.9955 28.9415 16.3829 28.5536 12.7836C28.1656 9.18438 26.4287 5.86567 23.6924 3.4955C20.9561 1.12532 17.4235 -0.120359 13.8057 0.00917745C10.1879 0.138714 6.75346 1.63385 4.19366 4.19366C1.63385 6.75346 0.138714 10.1879 0.00917745 13.8057C-0.120359 17.4235 1.12532 20.9561 3.4955 23.6924C5.86568 26.4287 9.18438 28.1656 12.7836 28.5536C16.3829 28.9415 19.9955 27.9517 22.8944 25.7833L30.5955 33.4844C30.9857 33.8306 31.4933 34.0147 32.0147 33.9991C32.5361 33.9835 33.0318 33.7694 33.4006 33.4006C33.7694 33.0318 33.9835 32.5361 33.9991 32.0147C34.0147 31.4933 33.8306 30.9857 33.4845 30.5955ZM4.11942 14.335C4.11942 12.3147 4.7185 10.3398 5.84091 8.66C6.96331 6.98021 8.55863 5.67097 10.4251 4.89784C12.2916 4.12472 14.3454 3.92243 16.3269 4.31657C18.3083 4.7107 20.1284 5.68356 21.557 7.11211C22.9855 8.54066 23.9584 10.3607 24.3525 12.3422C24.7466 14.3236 24.5444 16.3775 23.7712 18.244C22.9981 20.1105 21.6889 21.7058 20.0091 22.8282C18.3293 23.9506 16.3544 24.5497 14.3341 24.5497C11.625 24.5497 9.02686 23.4735 7.11123 21.5578C5.19561 19.6422 4.11942 17.0441 4.11942 14.335Z" fill="#BAACE4"/>
</svg>
