<svg width="109" height="41" viewBox="0 0 109 41" fill="none" xmlns="http://www.w3.org/2000/svg">
<path d="M82.5019 28V0H90.5031V21.72H104V28H82.5019Z" fill="url(#paint0_linear_62_47)"/>
<path d="M41.3832 28V0H54.3144C56.9006 0 59.1232 0.413334 60.982 1.24C62.8678 2.06667 64.3226 3.26667 65.3463 4.84C66.37 6.38667 66.8819 8.22667 66.8819 10.36C66.8819 12.4667 66.37 14.2933 65.3463 15.84C64.3226 17.3867 62.8678 18.5867 60.982 19.44C59.1232 20.2667 56.9006 20.68 54.3144 20.68H45.8283L49.3844 17.24V28H41.3832ZM49.3844 18.08L45.8283 14.44H53.8295C55.4997 14.44 56.739 14.08 57.5472 13.36C58.3823 12.64 58.7999 11.64 58.7999 10.36C58.7999 9.05333 58.3823 8.04 57.5472 7.32C56.739 6.6 55.4997 6.24 53.8295 6.24H45.8283L49.3844 2.6V18.08Z" fill="url(#paint1_linear_62_47)"/>
<path d="M5 28V0H13.0012V21.72H26.4981V28H5Z" fill="url(#paint2_linear_62_47)"/>
<path d="M106.023 41C105.461 41 104.923 40.919 104.409 40.7569C103.894 40.5875 103.48 40.3702 103.165 40.105L103.717 38.7569C104.018 38.9926 104.372 39.1878 104.779 39.3425C105.194 39.4899 105.612 39.5635 106.033 39.5635C106.353 39.5635 106.611 39.5304 106.805 39.4641C107.005 39.3904 107.152 39.291 107.246 39.1657C107.339 39.0405 107.386 38.8969 107.386 38.7348C107.386 38.5285 107.312 38.3665 107.165 38.2486C107.018 38.1234 106.825 38.0239 106.584 37.9503C106.343 37.8692 106.076 37.7956 105.782 37.7293C105.495 37.6556 105.204 37.5672 104.91 37.4641C104.622 37.361 104.358 37.2284 104.118 37.0663C103.877 36.9042 103.68 36.6906 103.526 36.4254C103.379 36.1602 103.306 35.8214 103.306 35.4088C103.306 34.9669 103.413 34.5654 103.627 34.2044C103.847 33.8361 104.175 33.5451 104.609 33.3315C105.05 33.1105 105.602 33 106.263 33C106.704 33 107.139 33.0589 107.566 33.1768C107.994 33.2873 108.372 33.4567 108.699 33.6851L108.198 35.0442C107.871 34.8379 107.543 34.6869 107.216 34.5912C106.888 34.488 106.567 34.4365 106.253 34.4365C105.939 34.4365 105.682 34.477 105.481 34.558C105.281 34.639 105.137 34.7459 105.05 34.8785C104.963 35.0037 104.92 35.151 104.92 35.3204C104.92 35.5193 104.993 35.6814 105.14 35.8066C105.287 35.9245 105.481 36.0203 105.722 36.0939C105.962 36.1676 106.226 36.2413 106.514 36.3149C106.808 36.3886 107.099 36.4733 107.386 36.5691C107.68 36.6648 107.947 36.7937 108.188 36.9558C108.429 37.1179 108.622 37.3315 108.769 37.5967C108.923 37.8619 109 38.1971 109 38.6022C109 39.0368 108.89 39.4346 108.669 39.7956C108.449 40.1565 108.118 40.4475 107.677 40.6685C107.242 40.8895 106.691 41 106.023 41Z" fill="url(#paint3_linear_62_47)"/>
<path d="M96.0511 40.8674V33.1326H99.4797C100.362 33.1326 101.024 33.3168 101.465 33.6851C101.912 34.0534 102.136 34.5396 102.136 35.1436C102.136 35.5488 102.046 35.9024 101.866 36.2044C101.685 36.4991 101.438 36.7274 101.124 36.8895C100.81 37.0516 100.449 37.1326 100.041 37.1326L100.232 36.6796C100.673 36.6796 101.064 36.7606 101.404 36.9227C101.745 37.0774 102.009 37.3094 102.196 37.6188C102.39 37.9282 102.487 38.3076 102.487 38.7569C102.487 39.4199 102.25 39.9392 101.775 40.3149C101.301 40.6832 100.602 40.8674 99.6802 40.8674H96.0511ZM97.6651 39.5193H99.5599C99.9809 39.5193 100.298 39.4457 100.512 39.2983C100.733 39.1436 100.843 38.9006 100.843 38.5691C100.843 38.2449 100.733 38.0055 100.512 37.8508C100.298 37.6888 99.9809 37.6077 99.5599 37.6077H97.5448V36.3039H99.2792C99.6735 36.3039 99.9742 36.2302 100.181 36.0829C100.395 35.9282 100.502 35.6961 100.502 35.3867C100.502 35.0847 100.395 34.86 100.181 34.7127C99.9742 34.558 99.6735 34.4807 99.2792 34.4807H97.6651V39.5193Z" fill="url(#paint4_linear_62_47)"/>
<path d="M87.4533 40.8674L90.5811 33.1326H92.1852L95.323 40.8674H93.6187L91.0523 34.0387H91.6939L89.1175 40.8674H87.4533ZM89.0172 39.2099L89.4483 37.8508H93.0573L93.4984 39.2099H89.0172Z" fill="url(#paint5_linear_62_47)"/>
<path d="M82.2861 40.8674V33.1326H83.9102V39.4088H87.429V40.8674H82.2861Z" fill="url(#paint6_linear_62_47)"/>
<path d="M73.4797 39.0994L73.3895 37.0332L76.7479 33.1326H78.5524L75.5248 36.7238L74.6226 37.7845L73.4797 39.0994ZM72.0261 40.8674V33.1326H73.6401V40.8674H72.0261ZM76.8281 40.8674L74.3318 37.4972L75.3945 36.2265L78.7228 40.8674H76.8281Z" fill="url(#paint7_linear_62_47)"/>
<path d="M64.6541 40.8674V33.1326H67.6917C68.32 33.1326 68.8613 33.2468 69.3158 33.4751C69.7703 33.6961 70.1211 34.0166 70.3684 34.4365C70.6157 34.8564 70.7394 35.3573 70.7394 35.9392C70.7394 36.5138 70.6157 37.0111 70.3684 37.4309C70.1211 37.8435 69.7703 38.1602 69.3158 38.3812C68.8613 38.6022 68.32 38.7127 67.6917 38.7127H65.5564L66.2782 37.9282V40.8674H64.6541ZM69.1153 40.8674L67.3609 38.0608H69.0952L70.8697 40.8674H69.1153ZM66.2782 38.1271L65.5564 37.2873H67.6015C68.1027 37.2873 68.477 37.1694 68.7243 36.9337C68.9716 36.6906 69.0952 36.3591 69.0952 35.9392C69.0952 35.512 68.9716 35.1805 68.7243 34.9448C68.477 34.709 68.1027 34.5912 67.6015 34.5912H65.5564L66.2782 33.7403V38.1271Z" fill="url(#paint8_linear_62_47)"/>
<path d="M56.0563 40.8674L59.1841 33.1326H60.7882L63.926 40.8674H62.2217L59.6553 34.0387H60.2969L57.7205 40.8674H56.0563ZM57.6202 39.2099L58.0513 37.8508H61.6603L62.1014 39.2099H57.6202Z" fill="url(#paint9_linear_62_47)"/>
<path d="M50.0864 40.8674V33.1326H53.124C53.7522 33.1326 54.2936 33.2468 54.748 33.4751C55.2025 33.6961 55.5534 34.0166 55.8007 34.4365C56.048 34.8564 56.1716 35.3573 56.1716 35.9392C56.1716 36.5138 56.048 37.0111 55.8007 37.4309C55.5534 37.8508 55.2025 38.175 54.748 38.4033C54.2936 38.6243 53.7522 38.7348 53.124 38.7348H50.9886L51.7104 37.9282V40.8674H50.0864ZM51.7104 38.1271L50.9886 37.2762H53.0337C53.535 37.2762 53.9093 37.1584 54.1566 36.9227C54.4038 36.6869 54.5275 36.3591 54.5275 35.9392C54.5275 35.512 54.4038 35.1805 54.1566 34.9448C53.9093 34.709 53.535 34.5912 53.0337 34.5912H50.9886L51.7104 33.7403V38.1271Z" fill="url(#paint10_linear_62_47)"/>
<path d="M39.1508 40.8674V33.1326H40.4941L44.6345 38.7017H43.9829V33.1326H45.5869V40.8674H44.2535L40.1031 35.2983H40.7548V40.8674H39.1508Z" fill="url(#paint11_linear_62_47)"/>
<path d="M33.1005 40.8674V33.1326H34.7245V39.4088H38.2433V40.8674H33.1005Z" fill="url(#paint12_linear_62_47)"/>
<path d="M28.0503 41C27.4956 41 26.981 40.9006 26.5065 40.7017C26.0386 40.5028 25.6309 40.2228 25.2834 39.8619C24.9425 39.5009 24.6752 39.0773 24.4814 38.5912C24.2943 38.105 24.2007 37.5746 24.2007 37C24.2007 36.4254 24.2943 35.895 24.4814 35.4088C24.6752 34.9227 24.9459 34.4991 25.2934 34.1381C25.641 33.7772 26.0486 33.4972 26.5165 33.2983C26.9843 33.0994 27.4923 33 28.0403 33C28.595 33 29.103 33.0994 29.5641 33.2983C30.032 33.4972 30.4363 33.7772 30.7772 34.1381C31.1247 34.4991 31.3954 34.9227 31.5892 35.4088C31.783 35.8877 31.8799 36.418 31.8799 37C31.8799 37.5746 31.783 38.1087 31.5892 38.6022C31.3954 39.0884 31.1247 39.512 30.7772 39.8729C30.4363 40.2265 30.032 40.5028 29.5641 40.7017C29.103 40.9006 28.5984 41 28.0503 41ZM28.0403 39.4751C28.3544 39.4751 28.6418 39.4162 28.9025 39.2983C29.1698 39.1805 29.4037 39.011 29.6042 38.7901C29.8047 38.5691 29.9584 38.3076 30.0654 38.0055C30.179 37.7035 30.2358 37.3683 30.2358 37C30.2358 36.6317 30.179 36.2965 30.0654 35.9945C29.9584 35.6924 29.8047 35.4309 29.6042 35.2099C29.4104 34.9889 29.1798 34.8195 28.9125 34.7017C28.6451 34.5838 28.3544 34.5249 28.0403 34.5249C27.7262 34.5249 27.4355 34.5838 27.1681 34.7017C26.9075 34.8195 26.6769 34.9889 26.4764 35.2099C26.2759 35.4309 26.1188 35.6924 26.0052 35.9945C25.8983 36.2965 25.8448 36.6317 25.8448 37C25.8448 37.361 25.8983 37.6961 26.0052 38.0055C26.1188 38.3076 26.2725 38.5691 26.4664 38.7901C26.6669 39.011 26.9008 39.1805 27.1681 39.2983C27.4355 39.4162 27.7262 39.4751 28.0403 39.4751Z" fill="url(#paint13_linear_62_47)"/>
<path d="M20.7946 41C20.2533 41 19.7487 40.9042 19.2808 40.7127C18.8197 40.5138 18.4187 40.2339 18.0778 39.8729C17.737 39.512 17.4696 39.0884 17.2758 38.6022C17.0887 38.116 16.9951 37.582 16.9951 37C16.9951 36.418 17.0887 35.884 17.2758 35.3978C17.4696 34.9116 17.737 34.488 18.0778 34.1271C18.4254 33.7661 18.8297 33.4899 19.2909 33.2983C19.752 33.0994 20.2566 33 20.8047 33C21.4128 33 21.9609 33.1179 22.4488 33.3536C22.9433 33.582 23.3577 33.9208 23.6919 34.3702L22.6493 35.4309C22.4087 35.1289 22.1413 34.9042 21.8473 34.7569C21.5532 34.6022 21.2324 34.5249 20.8849 34.5249C20.5574 34.5249 20.2566 34.5838 19.9826 34.7017C19.7086 34.8195 19.4713 34.9889 19.2708 35.2099C19.0703 35.4309 18.9133 35.6924 18.7996 35.9945C18.6927 36.2965 18.6392 36.6317 18.6392 37C18.6392 37.3683 18.6927 37.7035 18.7996 38.0055C18.9133 38.3076 19.0703 38.5691 19.2708 38.7901C19.4713 39.011 19.7086 39.1805 19.9826 39.2983C20.2566 39.4162 20.5574 39.4751 20.8849 39.4751C21.2324 39.4751 21.5532 39.4015 21.8473 39.2541C22.1413 39.0994 22.4087 38.8674 22.6493 38.558L23.6919 39.6188C23.3577 40.0681 22.9433 40.4107 22.4488 40.6464C21.9609 40.8821 21.4095 41 20.7946 41Z" fill="url(#paint14_linear_62_47)"/>
<path d="M9.33978 40.8674V33.1326H10.6831L14.8235 38.7017H14.1719V33.1326H15.7759V40.8674H14.4426L10.2922 35.2983H10.9438V40.8674H9.33978Z" fill="url(#paint15_linear_62_47)"/>
<path d="M6.05029 40.8674V33.1326H7.67436V40.8674H6.05029Z" fill="url(#paint16_linear_62_47)"/>
<path d="M0 40.8674V33.1326H1.62407V39.4088H5.14288V40.8674H0Z" fill="url(#paint17_linear_62_47)"/>
<defs>
<linearGradient id="paint0_linear_62_47" x1="53.2544" y1="-11" x2="14.6104" y2="42.1006" gradientUnits="userSpaceOnUse">
<stop stop-color="#1A0061"/>
<stop offset="1" stop-color="#3500D4"/>
</linearGradient>
<linearGradient id="paint1_linear_62_47" x1="53.2544" y1="-11" x2="14.6104" y2="42.1006" gradientUnits="userSpaceOnUse">
<stop stop-color="#1A0061"/>
<stop offset="1" stop-color="#3500D4"/>
</linearGradient>
<linearGradient id="paint2_linear_62_47" x1="53.2544" y1="-11" x2="14.6104" y2="42.1006" gradientUnits="userSpaceOnUse">
<stop stop-color="#1A0061"/>
<stop offset="1" stop-color="#3500D4"/>
</linearGradient>
<linearGradient id="paint3_linear_62_47" x1="54.2228" y1="29.8177" x2="50.3106" y2="51.0774" gradientUnits="userSpaceOnUse">
<stop stop-color="#1A0061"/>
<stop offset="1" stop-color="#3500D4"/>
</linearGradient>
<linearGradient id="paint4_linear_62_47" x1="54.2228" y1="29.8177" x2="50.3106" y2="51.0774" gradientUnits="userSpaceOnUse">
<stop stop-color="#1A0061"/>
<stop offset="1" stop-color="#3500D4"/>
</linearGradient>
<linearGradient id="paint5_linear_62_47" x1="54.2228" y1="29.8177" x2="50.3106" y2="51.0774" gradientUnits="userSpaceOnUse">
<stop stop-color="#1A0061"/>
<stop offset="1" stop-color="#3500D4"/>
</linearGradient>
<linearGradient id="paint6_linear_62_47" x1="54.2228" y1="29.8177" x2="50.3106" y2="51.0774" gradientUnits="userSpaceOnUse">
<stop stop-color="#1A0061"/>
<stop offset="1" stop-color="#3500D4"/>
</linearGradient>
<linearGradient id="paint7_linear_62_47" x1="54.2228" y1="29.8177" x2="50.3106" y2="51.0774" gradientUnits="userSpaceOnUse">
<stop stop-color="#1A0061"/>
<stop offset="1" stop-color="#3500D4"/>
</linearGradient>
<linearGradient id="paint8_linear_62_47" x1="54.2228" y1="29.8177" x2="50.3106" y2="51.0774" gradientUnits="userSpaceOnUse">
<stop stop-color="#1A0061"/>
<stop offset="1" stop-color="#3500D4"/>
</linearGradient>
<linearGradient id="paint9_linear_62_47" x1="54.2228" y1="29.8177" x2="50.3106" y2="51.0774" gradientUnits="userSpaceOnUse">
<stop stop-color="#1A0061"/>
<stop offset="1" stop-color="#3500D4"/>
</linearGradient>
<linearGradient id="paint10_linear_62_47" x1="54.2228" y1="29.8177" x2="50.3106" y2="51.0774" gradientUnits="userSpaceOnUse">
<stop stop-color="#1A0061"/>
<stop offset="1" stop-color="#3500D4"/>
</linearGradient>
<linearGradient id="paint11_linear_62_47" x1="54.2228" y1="29.8177" x2="50.3105" y2="51.0774" gradientUnits="userSpaceOnUse">
<stop stop-color="#1A0061"/>
<stop offset="1" stop-color="#3500D4"/>
</linearGradient>
<linearGradient id="paint12_linear_62_47" x1="54.2228" y1="29.8177" x2="50.3106" y2="51.0774" gradientUnits="userSpaceOnUse">
<stop stop-color="#1A0061"/>
<stop offset="1" stop-color="#3500D4"/>
</linearGradient>
<linearGradient id="paint13_linear_62_47" x1="54.2228" y1="29.8177" x2="50.3106" y2="51.0774" gradientUnits="userSpaceOnUse">
<stop stop-color="#1A0061"/>
<stop offset="1" stop-color="#3500D4"/>
</linearGradient>
<linearGradient id="paint14_linear_62_47" x1="54.2228" y1="29.8177" x2="50.3106" y2="51.0774" gradientUnits="userSpaceOnUse">
<stop stop-color="#1A0061"/>
<stop offset="1" stop-color="#3500D4"/>
</linearGradient>
<linearGradient id="paint15_linear_62_47" x1="54.2228" y1="29.8177" x2="50.3106" y2="51.0774" gradientUnits="userSpaceOnUse">
<stop stop-color="#1A0061"/>
<stop offset="1" stop-color="#3500D4"/>
</linearGradient>
<linearGradient id="paint16_linear_62_47" x1="54.2228" y1="29.8177" x2="50.3106" y2="51.0774" gradientUnits="userSpaceOnUse">
<stop stop-color="#1A0061"/>
<stop offset="1" stop-color="#3500D4"/>
</linearGradient>
<linearGradient id="paint17_linear_62_47" x1="54.2228" y1="29.8177" x2="50.3106" y2="51.0774" gradientUnits="userSpaceOnUse">
<stop stop-color="#1A0061"/>
<stop offset="1" stop-color="#3500D4"/>
</linearGradient>
</defs>
</svg>
